<!-- Generated by IcoMoon.io -->
<svg version="1.1" xmlns="http://www.w3.org/2000/svg" class="svg-icon" id="svgBemIcon" viewBox="0 0 39 32">
    <title>bem</title>
    <path d="M0 4.933h9.035v2.657h-9.035v-2.657zM0-0.002h9.035v2.657h-9.035v-2.657zM16.211 9.83h-16.211v2.657h15.603c1.708 0 5.694 0.038 7.175 2.43v-1.481c-0.721-2.354-2.847-3.607-6.568-3.607zM16.248 14.766h-16.248v2.657h15.603c3.796 0 6.188 0.152 7.175 0.683v-1.177c-0.759-1.86-3.948-2.164-6.53-2.164zM16.211 27.294h-16.211v-2.657h15.603c1.708 0 5.694-0.038 7.175-2.43v1.481c-0.721 2.354-2.847 3.607-6.568 3.607zM16.248 22.358h-16.248v-2.657h15.603c3.796 0 6.188-0.152 7.175-0.683v1.177c-0.759 1.86-3.948 2.164-6.53 2.164zM26.727 31.887h11.921v-1.633h-11.579c-1.025 0-3.455-0.038-4.328-1.443v0.911c0.418 1.405 1.708 2.164 3.986 2.164zM26.689 28.888h11.921v-1.632h-11.541c-2.316 0-3.758-0.076-4.328-0.418v0.721c0.455 1.139 2.392 1.329 3.948 1.329z"></path>
</svg>